<mxfile host="app.diagrams.net" modified="2022-11-19T10:47:13.170Z" agent="5.0 (Windows NT 10.0; Win64; x64) AppleWebKit/537.36 (KHTML, like Gecko) Chrome/107.0.0.0 Safari/537.36 Edg/107.0.1418.42" etag="BHh_R-4KzAhXzLftygfF" version="20.5.3" type="github">
  <diagram id="6a731a19-8d31-9384-78a2-239565b7b9f0" name="Page-1">
    <mxGraphModel dx="627" dy="1055" grid="1" gridSize="10" guides="1" tooltips="1" connect="1" arrows="1" fold="1" page="1" pageScale="1" pageWidth="1169" pageHeight="827" background="none" math="0" shadow="0">
      <root>
        <mxCell id="0" />
        <mxCell id="1" parent="0" />
        <mxCell id="heLe5dSWJPTTHTUSu2lB-57" value="" style="edgeStyle=orthogonalEdgeStyle;rounded=0;orthogonalLoop=1;jettySize=auto;html=1;" edge="1" parent="1" source="heLe5dSWJPTTHTUSu2lB-55" target="heLe5dSWJPTTHTUSu2lB-56">
          <mxGeometry relative="1" as="geometry" />
        </mxCell>
        <mxCell id="heLe5dSWJPTTHTUSu2lB-55" value="START" style="rounded=1;whiteSpace=wrap;html=1;" vertex="1" parent="1">
          <mxGeometry x="290" width="120" height="40" as="geometry" />
        </mxCell>
        <mxCell id="heLe5dSWJPTTHTUSu2lB-59" value="" style="edgeStyle=orthogonalEdgeStyle;rounded=0;orthogonalLoop=1;jettySize=auto;html=1;" edge="1" parent="1" source="heLe5dSWJPTTHTUSu2lB-56" target="heLe5dSWJPTTHTUSu2lB-58">
          <mxGeometry relative="1" as="geometry" />
        </mxCell>
        <mxCell id="heLe5dSWJPTTHTUSu2lB-56" value="X, Y, Z" style="shape=parallelogram;perimeter=parallelogramPerimeter;whiteSpace=wrap;html=1;fixedSize=1;rounded=1;" vertex="1" parent="1">
          <mxGeometry x="290" y="70" width="120" height="60" as="geometry" />
        </mxCell>
        <mxCell id="heLe5dSWJPTTHTUSu2lB-61" value="" style="edgeStyle=orthogonalEdgeStyle;rounded=0;orthogonalLoop=1;jettySize=auto;html=1;" edge="1" parent="1" source="heLe5dSWJPTTHTUSu2lB-58" target="heLe5dSWJPTTHTUSu2lB-60">
          <mxGeometry relative="1" as="geometry" />
        </mxCell>
        <mxCell id="heLe5dSWJPTTHTUSu2lB-58" value="a = x&lt;br&gt;b = y&lt;br&gt;c = z" style="whiteSpace=wrap;html=1;aspect=fixed;" vertex="1" parent="1">
          <mxGeometry x="310" y="160" width="80" height="80" as="geometry" />
        </mxCell>
        <mxCell id="heLe5dSWJPTTHTUSu2lB-63" value="" style="edgeStyle=orthogonalEdgeStyle;rounded=0;orthogonalLoop=1;jettySize=auto;html=1;" edge="1" parent="1" source="heLe5dSWJPTTHTUSu2lB-60" target="heLe5dSWJPTTHTUSu2lB-62">
          <mxGeometry relative="1" as="geometry" />
        </mxCell>
        <mxCell id="heLe5dSWJPTTHTUSu2lB-78" style="edgeStyle=orthogonalEdgeStyle;rounded=0;orthogonalLoop=1;jettySize=auto;html=1;entryX=0.5;entryY=0;entryDx=0;entryDy=0;" edge="1" parent="1" source="heLe5dSWJPTTHTUSu2lB-60" target="heLe5dSWJPTTHTUSu2lB-73">
          <mxGeometry relative="1" as="geometry" />
        </mxCell>
        <mxCell id="heLe5dSWJPTTHTUSu2lB-60" value="a &amp;gt; b" style="rhombus;whiteSpace=wrap;html=1;" vertex="1" parent="1">
          <mxGeometry x="310" y="260" width="80" height="80" as="geometry" />
        </mxCell>
        <mxCell id="heLe5dSWJPTTHTUSu2lB-65" value="" style="edgeStyle=orthogonalEdgeStyle;rounded=0;orthogonalLoop=1;jettySize=auto;html=1;" edge="1" parent="1" source="heLe5dSWJPTTHTUSu2lB-62" target="heLe5dSWJPTTHTUSu2lB-64">
          <mxGeometry relative="1" as="geometry" />
        </mxCell>
        <mxCell id="heLe5dSWJPTTHTUSu2lB-79" style="edgeStyle=orthogonalEdgeStyle;rounded=0;orthogonalLoop=1;jettySize=auto;html=1;entryX=0.5;entryY=0;entryDx=0;entryDy=0;" edge="1" parent="1" source="heLe5dSWJPTTHTUSu2lB-62" target="heLe5dSWJPTTHTUSu2lB-72">
          <mxGeometry relative="1" as="geometry" />
        </mxCell>
        <mxCell id="heLe5dSWJPTTHTUSu2lB-62" value="b &amp;gt; c" style="rhombus;whiteSpace=wrap;html=1;" vertex="1" parent="1">
          <mxGeometry x="310" y="380" width="80" height="80" as="geometry" />
        </mxCell>
        <mxCell id="heLe5dSWJPTTHTUSu2lB-67" value="" style="edgeStyle=orthogonalEdgeStyle;rounded=0;orthogonalLoop=1;jettySize=auto;html=1;" edge="1" parent="1" source="heLe5dSWJPTTHTUSu2lB-64" target="heLe5dSWJPTTHTUSu2lB-66">
          <mxGeometry relative="1" as="geometry" />
        </mxCell>
        <mxCell id="heLe5dSWJPTTHTUSu2lB-80" style="edgeStyle=orthogonalEdgeStyle;rounded=0;orthogonalLoop=1;jettySize=auto;html=1;entryX=0.5;entryY=0;entryDx=0;entryDy=0;" edge="1" parent="1" source="heLe5dSWJPTTHTUSu2lB-64" target="heLe5dSWJPTTHTUSu2lB-71">
          <mxGeometry relative="1" as="geometry" />
        </mxCell>
        <mxCell id="heLe5dSWJPTTHTUSu2lB-64" value="a &amp;gt; b" style="rhombus;whiteSpace=wrap;html=1;" vertex="1" parent="1">
          <mxGeometry x="310" y="500" width="80" height="80" as="geometry" />
        </mxCell>
        <mxCell id="heLe5dSWJPTTHTUSu2lB-74" value="" style="edgeStyle=orthogonalEdgeStyle;rounded=0;orthogonalLoop=1;jettySize=auto;html=1;exitX=0.492;exitY=0.85;exitDx=0;exitDy=0;exitPerimeter=0;" edge="1" parent="1" source="heLe5dSWJPTTHTUSu2lB-66" target="heLe5dSWJPTTHTUSu2lB-70">
          <mxGeometry relative="1" as="geometry" />
        </mxCell>
        <mxCell id="heLe5dSWJPTTHTUSu2lB-66" value="a, b, c" style="shape=document;whiteSpace=wrap;html=1;boundedLbl=1;size=0.375;" vertex="1" parent="1">
          <mxGeometry x="290" y="640" width="120" height="70" as="geometry" />
        </mxCell>
        <mxCell id="heLe5dSWJPTTHTUSu2lB-70" value="STOP" style="rounded=1;whiteSpace=wrap;html=1;" vertex="1" parent="1">
          <mxGeometry x="290" y="750" width="120" height="60" as="geometry" />
        </mxCell>
        <mxCell id="heLe5dSWJPTTHTUSu2lB-82" style="edgeStyle=orthogonalEdgeStyle;rounded=0;orthogonalLoop=1;jettySize=auto;html=1;" edge="1" parent="1" source="heLe5dSWJPTTHTUSu2lB-71">
          <mxGeometry relative="1" as="geometry">
            <mxPoint x="350" y="600" as="targetPoint" />
            <Array as="points">
              <mxPoint x="350" y="610" />
            </Array>
          </mxGeometry>
        </mxCell>
        <mxCell id="heLe5dSWJPTTHTUSu2lB-71" value="temp = a&lt;br&gt;a = b&lt;br&gt;b = temp" style="whiteSpace=wrap;html=1;aspect=fixed;" vertex="1" parent="1">
          <mxGeometry x="480" y="560" width="80" height="80" as="geometry" />
        </mxCell>
        <mxCell id="heLe5dSWJPTTHTUSu2lB-76" style="edgeStyle=orthogonalEdgeStyle;rounded=0;orthogonalLoop=1;jettySize=auto;html=1;" edge="1" parent="1" source="heLe5dSWJPTTHTUSu2lB-72">
          <mxGeometry relative="1" as="geometry">
            <mxPoint x="350" y="480" as="targetPoint" />
          </mxGeometry>
        </mxCell>
        <mxCell id="heLe5dSWJPTTHTUSu2lB-72" value="temp = b&lt;br&gt;b = c&lt;br&gt;c = temp" style="whiteSpace=wrap;html=1;aspect=fixed;" vertex="1" parent="1">
          <mxGeometry x="480" y="440" width="80" height="80" as="geometry" />
        </mxCell>
        <mxCell id="heLe5dSWJPTTHTUSu2lB-77" value="" style="edgeStyle=orthogonalEdgeStyle;rounded=0;orthogonalLoop=1;jettySize=auto;html=1;" edge="1" parent="1" source="heLe5dSWJPTTHTUSu2lB-73">
          <mxGeometry relative="1" as="geometry">
            <mxPoint x="350" y="360" as="targetPoint" />
          </mxGeometry>
        </mxCell>
        <mxCell id="heLe5dSWJPTTHTUSu2lB-73" value="&amp;nbsp;temp = a&lt;br&gt;a = b&lt;br&gt;b = temp" style="whiteSpace=wrap;html=1;aspect=fixed;" vertex="1" parent="1">
          <mxGeometry x="480" y="320" width="80" height="80" as="geometry" />
        </mxCell>
        <mxCell id="heLe5dSWJPTTHTUSu2lB-83" value="yes" style="text;html=1;align=center;verticalAlign=middle;resizable=0;points=[];autosize=1;strokeColor=none;fillColor=none;" vertex="1" parent="1">
          <mxGeometry x="430" y="275" width="40" height="30" as="geometry" />
        </mxCell>
        <mxCell id="heLe5dSWJPTTHTUSu2lB-84" value="no" style="text;html=1;align=center;verticalAlign=middle;resizable=0;points=[];autosize=1;strokeColor=none;fillColor=none;" vertex="1" parent="1">
          <mxGeometry x="340" y="325" width="40" height="30" as="geometry" />
        </mxCell>
        <mxCell id="heLe5dSWJPTTHTUSu2lB-85" value="no" style="text;html=1;align=center;verticalAlign=middle;resizable=0;points=[];autosize=1;strokeColor=none;fillColor=none;" vertex="1" parent="1">
          <mxGeometry x="340" y="455" width="40" height="30" as="geometry" />
        </mxCell>
        <mxCell id="heLe5dSWJPTTHTUSu2lB-86" value="no" style="text;html=1;align=center;verticalAlign=middle;resizable=0;points=[];autosize=1;strokeColor=none;fillColor=none;" vertex="1" parent="1">
          <mxGeometry x="340" y="575" width="40" height="30" as="geometry" />
        </mxCell>
        <mxCell id="heLe5dSWJPTTHTUSu2lB-87" value="yes" style="text;html=1;align=center;verticalAlign=middle;resizable=0;points=[];autosize=1;strokeColor=none;fillColor=none;" vertex="1" parent="1">
          <mxGeometry x="430" y="405" width="40" height="30" as="geometry" />
        </mxCell>
        <mxCell id="heLe5dSWJPTTHTUSu2lB-88" value="yes" style="text;html=1;align=center;verticalAlign=middle;resizable=0;points=[];autosize=1;strokeColor=none;fillColor=none;" vertex="1" parent="1">
          <mxGeometry x="420" y="515" width="40" height="30" as="geometry" />
        </mxCell>
      </root>
    </mxGraphModel>
  </diagram>
</mxfile>
